<?xml version="1.0" encoding="UTF-8"?>
<svg id="_レイヤー_1" data-name="レイヤー 1" xmlns="http://www.w3.org/2000/svg" viewBox="0 0 907.2 907.2">
  <defs>
    <style>
      .cls-1 {
        fill: #9fa0a0;
      }
    </style>
  </defs>
  <path class="cls-1" d="M458.74,905.66c-251.89,.03-454.36-201.82-454.39-453C4.32,203.09,207.96-.16,458.21-.32c249.87-.16,453.24,204.08,453.23,455.17-.01,248-203.64,450.78-452.7,450.81Zm217.92-576.2c-9.67,3.61-6.71,9.47-3.37,16.13,23.33,46.55,30.49,95.77,22.08,146.96-22.15,134.92-152.07,223.72-286.41,196.19-93.16-19.09-168.22-93.42-186.65-184.54-11.29-55.78-4.84-109.13,20.56-160.21,1.93-3.88,3.66-11.11,1.7-13.15-13.4-13.96-27.22-28.02-52.29-28.65,15.29,12.77,28.09,23.48,40.9,34.18,1.22-.78,2.43-1.57,3.65-2.35-2.2,3.89-4.39,7.78-8,14.17-33.06-46.69-76.48-67.12-132.72-63.32,4.94-9.76,9.09-17.97,13.87-27.42,11.58,22.91,33.21,14.24,49.35,20.82-13.67-11.48-16.13-35.44-40.81-34.84,4.12-6.44,8.11-12.67,11.15-17.42,15.41,18.58,29.88,36.25,44.69,53.64,2.2,2.59,5.74,4.52,9.03,5.63,22.32,7.46,44.74,14.61,66.06,21.52,1.47,3.88,2.72,7.17,3.96,10.45,3.16-1.87,6.46-3.55,9.43-5.68,1.4-1,2.15-2.89,3.25-4.34,81.42-107.81,238.35-127.14,342.69-41.01,21.37,17.64,38.88,39.96,61.29,63.38-1.82-8.57-3.09-14.58-4.4-20.76,24.15-8.52,108.35-66.67,118.48-82.18q20.72,20.79,25.79,16.58C699.65,53.03,445.56-19.36,244.95,102.21,41.03,225.79-15.12,496.15,121.74,689.16c138.8,195.75,412.14,233.13,597.15,80.5,184.46-152.17,175.8-394.12,92.82-520.55-12.99,11.16-25.73,22.09-38.46,33.03,1.1,1.35,2.2,2.7,3.3,4.05,10.34-7.42,20.67-14.85,31.86-22.88,2.89,5.81,6.72,13.53,8.86,17.83-46.57,18.21-89.5,40.3-132.55,64.62-2.22-4.45-5.23-10.48-8.22-16.49,15.49-4.39,30.98-8.78,46.46-13.17-.72-2.06-1.44-4.11-2.15-6.17-14.71,6.5-29.43,13.01-44.14,19.51Zm-312.52,176.63c6.06-6.86,11.74-19.14,18.27-19.61,23.01-1.66,38.46-17.35,57.45-26.11,9.19-4.24,10.19-9.06,.29-15-31.87-19.14-63.14-39.28-95.21-58.09-11.34-6.65-24.07-14.13-36.57-14.92-20.78-1.32-39.05-3.23-48.59-24.82-.23-.53-1.6-.55-2.44-.78-43.68,66.35-42.74,186.56,38.38,268.4,83.51,84.25,224.19,88.77,311.76,11.7,93.27-82.09,96.56-212.25,48.48-285.19-38.41,22.28-76.83,44.62-115.3,66.86-21.59,12.48-43.31,24.72-64.9,37.2-4.45,2.57-12.4,6.37-4.9,11.55,15.94,11.01,32.29,24.68,50.32,28.45,16.7,3.49,19.67,14.79,27.5,24.22-12.12-3.6-28.32,1.27-33.19-16.53-.38-1.4-2.63-2.38-4.14-3.35-12.59-8.06-24.64-17.29-38.06-23.63-7.72-3.65-19.22-6.12-26.29-2.98-16.84,7.49-35.63,15.65-46.89,29.16-10.74,12.88-22.64,11.42-35.96,13.5Zm290.33-171c-48.76-74.19-115.64-111.98-201.67-110.48-75.48,1.32-136.5,34.12-182.9,97.41,7.59,1.59,12.47,3.73,17.16,3.37,12.7-.97,18.49,5.84,22.72,16.55,6.93,17.52,21.59,28.46,36.56,38.2,30.77,20.03,62.17,39.08,93.31,58.54,12.62,7.88,25.51,6.87,37.75-.15,28.32-16.22,56.3-33.03,84.47-49.5,30.07-17.59,60.21-35.09,92.58-53.94Zm100.59-207.6c-6.02,6.71-10.46,11.65-13.21,14.72,8.79,10.13,16.7,19.24,25.15,28.96,5.56-5.18,10.44-9.72,16.11-15-9.37-9.57-18.16-18.57-28.05-28.67Zm-546.04-11c-4.61-6.23-8.5-11.48-13.19-17.82-10.94,8.99-20.8,17.09-31.23,25.66,5.63,6.19,10.05,11.04,15.04,16.51,10.28-8.52,19.51-16.17,29.38-24.35ZM103.14,714.72c9.17,11.14,17.27,20.98,25.98,31.57,6.21-5.9,10.96-10.42,16.03-15.23-8.32-10.26-15.89-19.58-23.85-29.4-5.87,4.22-10.92,7.86-18.16,13.07Zm137.97,121.97c12.02,6.09,23.36,11.85,35.51,18.01,3.47-7.52,6.2-13.45,9.31-20.19-11.72-5.9-22.38-11.26-34.15-17.18-3.54,6.42-6.7,12.15-10.67,19.36Zm598.44-211.85c-5.89,11.56-11.37,22.32-17.29,33.93,6.67,3.87,12.65,7.35,19.41,11.28,6.28-12.67,11.84-23.88,17.81-35.92-7.29-3.4-13.31-6.2-19.94-9.28Zm38.5-39.88c3.34-11.97,6.73-24.16,10.32-37.01-4.99-1.24-7.94-2.15-10.95-2.69-3.4-.61-6.86-.89-10.78-1.37-2.01,6.63-3.92,12.56-5.59,18.56-5.28,19.02-5.02,19.36,17.01,22.51Zm-415.06,286.25v22.53c13.37-1,25.71-1.92,39.9-2.98-1.65-8.15-2.91-14.4-3.95-19.56h-35.96Zm331.25-169.54c-8.6,10.71-16.08,20.03-24.02,29.92,6.29,5.4,11.27,9.68,16.94,14.54,8.68-10.92,16.45-20.69,24.99-31.43-6.45-4.7-11.44-8.33-17.9-13.03Zm-619.53,61.39c-8.82-9.42-17.04-18.2-26.03-27.81-5.56,5.14-10.39,9.6-16.76,15.49,9.84,9.68,18.75,18.45,28.61,28.16,5.52-6.17,9.95-11.11,14.18-15.83Zm489.02,54.15c-6.89,3.56-12.4,6.53-18.01,9.3-18.37,9.07-18.58,9.96-5.03,27.5,10.86-5.6,21.91-11.29,33.65-17.35-3.82-7.01-6.81-12.48-10.62-19.46Zm-29.76,39.71c-3.49-7.44-6.27-13.38-9.49-20.26-12.22,4.8-23.35,9.16-35.2,13.81,2.73,7.52,4.83,13.31,7.5,20.66,12.62-4.82,24.25-9.27,37.19-14.22Zm-261.03,5.54c-1.48,7.67-2.73,14.15-4.24,22.02,10.47,1.78,19.75,3.2,28.96,4.97,7.13,1.38,11.35-.29,11.7-8.46,.31-7.09,1.48-13.55-9.13-14.05-8.48-.4-16.88-2.7-27.28-4.49Zm80.72,31.18c-.54-9.16-.92-15.56-1.35-22.8h-36.47c-.76,6.33-1.52,12.62-2.43,20.2,14.03,.91,26,1.68,40.26,2.6ZM148.6,171c9.13-9.32,17.53-17.89,26.57-27.13-4.57-5.06-9-9.96-14.31-15.82-10.01,9.59-19.25,18.44-29.08,27.86,6.5,5.84,11.45,10.28,16.81,15.09Zm602.23-46.89c-10.7-8.78-20.53-16.85-31.03-25.47-5.24,7.07-9.11,12.29-13.36,18.03,10.42,8.44,19.69,15.95,29.69,24.04,5.18-5.85,9.54-10.77,14.7-16.6ZM26.45,362.38c-2.19,13.01-4.39,23.05-5.24,33.21-.23,2.74,3.22,7.84,5.69,8.33,4.76,.95,13.91,.51,14.44-1.31,2.94-10.19,5.17-21.04,4.57-31.49-.16-2.85-10.94-5.09-19.45-8.73Zm91.54,334.99c-7.18-11.01-13.71-21.04-20.69-31.75-6.47,3.86-12.15,7.24-19.05,11.35,7.52,11.65,14.45,22.38,21.84,33.82,6.68-5.01,11.97-8.97,17.91-13.42Zm700.19-31.87c-7.38,11.51-13.81,21.54-20.65,32.2,6.42,4.53,11.75,8.29,18.2,12.85,7.5-11.6,14.24-22.03,21.68-33.53-6.78-4.06-12.41-7.44-19.23-11.52ZM373.99,43.07c6.8-.99,13.02-2.04,19.27-2.78,18.28-2.16,19.09-3.42,13.59-22.95-1.97-.2-4.18-.78-6.3-.56-4.92,.51-9.84,1.25-14.7,2.16q-19.2,3.63-11.85,24.13ZM55.72,272.27c7.52,3.29,13.5,5.91,20.38,8.93,6-11.72,11.47-22.39,17.35-33.87-6.74-3.7-12.51-6.86-19.53-10.72-6.08,11.92-11.59,22.7-18.21,35.66ZM362.85,22.71c-13.2,3.68-25.07,6.98-38.35,10.68,2.67,7.9,4.73,13.99,7.05,20.87,12.57-3.37,23.74-6.37,35.94-9.64-1.55-7.31-2.9-13.68-4.64-21.91Zm-117.4,790.64c-11.68-7.41-21.75-13.8-32.6-20.68-4.58,6.64-8.28,12.02-12.52,18.18,11.71,7.58,22.13,14.33,33.25,21.53,4.37-7,7.65-12.26,11.87-19.03Zm301.54,71.15c-1.93-8.27-3.48-14.92-5.11-21.87-12.72,2.18-23.73,4.07-37.24,6.38,4.78,7.34-5.72,20.2,10.65,20.4,10.07,.12,20.17-3,31.7-4.91ZM27.3,547.46c3.63,13.72,6.8,25.68,10.31,38.93,8.16-4.67,21.19,.61,19.42-13.45-1.25-9.96-5.55-19.53-8.6-29.66-7.09,1.4-12.77,2.52-21.14,4.18Zm19.62-9.2c0-3.26,.2-5.08-.04-6.84-.69-4.94-1.56-9.85-2.35-14.77-2.82-17.35-5.52-18.75-24.71-11.31,2.16,11.8,4.38,23.93,6.74,36.8,7.85-1.5,13.55-2.59,20.37-3.89Zm31.25-308.97c7.4,4.2,13.04,7.4,19.41,11.01,7.17-11.13,13.61-21.12,20.44-31.72-6.52-4.72-11.79-8.54-17.93-12.99-7.5,11.53-14.07,21.62-21.93,33.7Zm212.97,607.52c-3.28,6.84-6.11,12.75-9.7,20.24,13.41,4.92,25.36,9.31,38.09,13.99,2.43-8.19,4.19-14.1,6.17-20.76-12.04-4.7-22.84-8.9-34.56-13.47Zm424.7-26.5c-5.54-6.85-9.65-11.93-14.1-17.44-10.77,7.11-20.4,13.48-31.03,20.5,3.82,6.51,7.11,12.12,11.16,19.04,11.55-7.51,21.98-14.3,33.96-22.1Zm-506.72-20.81c-9.92-8.05-19.25-15.62-29.43-23.88-4.91,5.33-9.38,10.18-15.06,16.34,10.55,8.59,20.46,16.66,31.22,25.42,4.94-6.64,8.89-11.96,13.28-17.87Zm575.22-38.89c-7.5-6.39-12.46-10.62-16.54-14.09-9.62,9.19-18.26,17.44-27.42,26.2,4.79,5.28,9.23,10.19,15.05,16.61,9.66-9.59,18.52-18.39,28.91-28.72ZM121.18,204.57c8.24-10.1,15.85-19.43,23.99-29.4-5.57-5.04-10.47-9.48-16.54-14.98-8.62,10.57-16.48,20.2-25.15,30.83,6.51,4.98,11.72,8.97,17.7,13.55ZM584.22,54.29c2.42-7.67,4.38-13.86,6.71-21.25-13.6-3.58-25.56-6.73-38.38-10.11-1.75,8.64-3.04,15.04-4.42,21.84,12.45,3.28,23.31,6.15,36.08,9.52Zm311.16,450.51c-1.29-1.65-2.57-3.31-3.86-4.96-6.51,2.5-16.79,3.36-18.73,7.83-3.9,9-3.26,19.98-4.57,30.72,7.53,1.21,13.56,2.17,21.1,3.38,2.17-13.24,4.11-25.11,6.05-36.97ZM540.92,42.84c8.24-19.51,7.83-20.34-10.73-23.84-3.54-.67-7.06-1.48-10.61-2.04-7.47-1.19-13.05-.61-13.77,9.39-.67,9.27,2.31,13.28,11.6,13.68,7.61,.33,15.18,1.76,23.51,2.8Zm313.94,542.13c-4.58,12.23-8.65,23.1-13.18,35.21,6.96,2.92,13.29,5.57,20.54,8.61,4.93-13.22,9.26-24.82,13.98-37.49-7.6-2.26-13.56-4.02-21.34-6.33ZM55.79,634.26c6.47,12.42,12.4,23.82,18.61,35.74,7.29-4.41,12.95-7.84,18.95-11.47-6.16-11.96-11.68-22.68-17.39-33.77-6.99,3.29-13.01,6.13-20.17,9.5ZM841.65,236.52c-7.13,4.1-13.08,7.51-19.48,11.19,6.1,11.7,11.46,21.99,17.4,33.39,6.71-2.97,12.63-5.59,20.04-8.87-6.23-12.38-11.8-23.45-17.97-35.71Zm-26.37-41.01c-6.7,5.09-11.97,9.08-17.84,13.53,7.29,10.84,13.98,20.78,21.18,31.49,6.73-4.19,12.25-7.62,18.71-11.64-7.77-11.76-14.64-22.16-22.05-33.39Zm-3.31-4.53c-8.69-10.66-16.54-20.28-25.08-30.76-5.98,5.36-10.9,9.77-16.56,14.83,8.25,10.07,15.85,19.35,24.21,29.56,5.94-4.65,11.08-8.67,17.43-13.63Zm-130.45-117.68c-4.2,7.8-7.29,13.54-10.62,19.72,10.91,7.19,20.61,13.58,31.1,20.5,4.5-5.94,8.48-11.19,13.4-17.69-11.27-7.49-21.63-14.38-33.88-22.52Zm70.01,708.38c-6.87-6.48-11.78-11.1-16.51-15.57-10.38,8.54-19.07,15.68-28.44,23.39,4.48,6,8.44,11.32,13.25,17.76,10.58-8.54,20.3-16.38,31.7-25.58ZM213.21,113.76c10.99-7.25,21.2-13.98,32-21.1-4.33-7.05-7.56-12.32-11.62-18.92-11.48,7.61-22.1,14.65-33.25,22.04,4.53,6.34,7.92,11.07,12.86,17.99ZM896.8,407.86c-9.4,3.86-21.02-3.02-22.34,10.16-1,9.95,1.59,20.25,2.54,29.99h19.8v-40.15Zm-41.36-85.74c7.89-3.21,13.9-5.66,20.75-8.44-4.99-12.62-9.43-23.83-14.42-36.44-7.58,3.42-13.9,6.28-20.23,9.13,4.77,12.26,9.01,23.17,13.9,35.75ZM240.92,69.52c4.1,7.21,7.36,12.93,11.04,19.41,11.62-5.96,22.31-11.44,34.1-17.49-3.39-6.77-6.48-12.92-9.96-19.87-12.2,6.22-22.96,11.71-35.18,17.95ZM39.44,592.28c4.82,12.37,9.35,23.98,14.31,36.7,7.37-3.31,13.38-6.01,20.04-9-2.53-6.9-4.59-12.84-6.87-18.69q-6.72-17.28-27.48-9ZM663.63,89.05c3.93-7.11,7.11-12.86,10.85-19.63-12.23-6.14-23.32-11.7-35.61-17.87-3.34,7.39-6.01,13.29-9.02,19.95,11.48,5.97,21.78,11.32,33.78,17.56ZM27.37,358.38c8.54,1.58,14.82,2.75,21.31,3.95,2.24-7.18,4.05-12.7,5.69-18.27,5.52-18.69,4.39-20.23-17.44-22.61-2.96,11.44-5.97,23.05-9.56,36.93ZM598.02,35.24q-10.79,20.47,8.88,27.44c5.82,2.07,11.61,4.21,18.05,6.55,3.03-6.9,5.66-12.9,8.79-20.01-12.55-4.91-23.75-9.29-35.72-13.97ZM74.14,286.16c-7.22-3.12-13.21-5.7-20.52-8.86-4.96,12.92-9.39,24.47-14.15,36.87,7.62,2.84,13.68,5.09,20.73,7.71,4.83-12.39,9.06-23.23,13.93-35.73ZM317.81,35.09c-12.17,4.76-23.69,9.28-36.4,14.25,3.59,7.38,6.46,13.28,9.58,19.71,6.65-2.41,12.49-4.54,18.36-6.64q18.49-6.61,8.46-27.32ZM888.89,364.79q-21.05,2.55-18.4,21.37c.32,2.25,.69,4.51,.69,6.77,.03,8.61,2.6,13.46,12.87,12.42,10.32-1.04,11.71-6.53,10.09-14.8-1.64-8.38-3.41-16.74-5.25-25.76ZM332.12,852.06c-9.57,20.9-9.44,21.25,9.98,26.03,6.48,1.6,13.02,2.99,20.83,4.77,1.58-7.53,2.91-13.9,4.41-21.06-12.29-3.4-23.46-6.48-35.23-9.74ZM462.97,34.26c12.13,1.02,23.55,1.99,36.14,3.05,1.12-7.89,2.08-14.65,3.2-22.55-8.59-.53-15.24-1-21.91-1.33-19.3-.94-19.33-.88-17.43,20.83ZM18.41,448.29h20.17c.82-9.06,1.12-17.56,2.46-25.9,1.63-10.14-3.86-12.2-12.18-13.05-9.47-.97-10.34,4.86-10.43,11.65-.11,8.88-.03,17.77-.03,27.3Zm838.29-121.41c3.53,12.78,6.59,23.86,9.57,34.64,21.39-.36,22.79-2.06,17.55-20.75-1.9-6.79-4.31-13.44-6.69-20.82-7,2.37-12.85,4.36-20.43,6.92ZM451.64,34.37c3.78-20.59,2.77-21.86-15.72-20.96-7.07,.35-14.13,.88-23.03,1.44,1.24,8.2,2.26,14.96,3.4,22.56,12.45-1.07,23.53-2.03,35.35-3.04Zm96.11,827.43c1.94,7.65,3.55,13.97,5.42,21.33,13.16-3.47,25.08-6.62,38.1-10.06-2.64-7.79-4.73-13.97-7.15-21.1-12.21,3.3-23.34,6.31-36.37,9.83Zm326.03-367.19c6.49,1.05,11.03,2.57,15.41,2.21,2.68-.22,7.05-3.09,7.32-5.2,1.13-8.96,1.86-18.17,.84-27.07-.31-2.73-6.63-6.55-10.25-6.62-3.6-.06-9.83,3.44-10.44,6.32-2.02,9.58-2.02,19.58-2.87,30.36Zm-833.07-.9c0-4.28,.18-8.76-.05-13.21-.27-5.44-.21-11.04-1.62-16.21-.72-2.64-4.03-5.87-6.7-6.48-12.72-2.9-15.02,.38-14.35,19.04,.83,22.74,1.14,22.98,22.71,16.86Z"/>
  <path class="cls-1" d="M437.34,54.76h19.6c-5.95,21.18-12.04,42.26-17.68,63.46-1.11,4.19-1.61,9.18-.45,13.24,6.58,23.05,13.76,45.93,21.03,69.85h-13.47c-3.96-16.97-7.61-32.64-11.26-48.31-1.73,.12-3.46,.23-5.19,.35-1.4,16.28-2.8,32.56-4.2,48.83,1.35,.56,2.7,1.13,4.06,1.69-4.12,.34-8.23,.68-13.73,1.14,3.12-21.1,6.46-40.67,8.68-60.36,.78-6.88,.4-14.77-2.25-21.01-8.96-21.12-19.16-41.71-29.42-63.63,6.8-1.05,15.98-2.47,26.84-4.14-13.16,22.34,7.72,34.37,10.82,51.31,3.75-16.96,17.89-32.06,6.62-52.41Z"/>
  <path class="cls-1" d="M155.6,440.48c15.97,3.69,31.94,7.38,50.07,11.57-.02-.31,.19,3.42,.39,6.83-1.67,.71-2.53,1.44-3.15,1.28-12.24-3.27-25.07-5.24-36.57-10.24-38.51-16.76-70.86,4.18-106.19,15.33v-25.45c18.85,11.9,33.85-3.02,50.92-6.45-16.51-5.44-29.38-22.44-50.82-13.46,.72-7.15,1.38-13.7,2.15-21.37,7.76,4.49,14.42,7.83,20.53,11.97,39.99,27.05,82.24,14.36,125.72,7.02-.53,5.94-1.02,11.41-1.16,13.05-18.71,1.97-35.13,3.7-51.54,5.43-.12,1.5-.23,3-.35,4.5Z"/>
  <path class="cls-1" d="M342.74,229.65c-7.5,4.44-11.72,6.93-13.43,7.94-11.28-13.44-21.84-26.02-32.41-38.61-1.29,.86-2.58,1.71-3.87,2.57,6.8,14.65,5.73,32.91,23.26,43.9-3.88,2.86-7.31,5.39-11.95,8.81-6.39-17.61-12.8-33.88-18.16-50.49-4.16-12.92-10.29-23.63-21.95-31.46-16.36-10.98-31.99-23.03-48.97-35.38,6.16-4.51,13.19-9.66,21.54-15.78,.51,24.76,23.37,26.99,35.18,40.14-7.29-15.9,1.53-37.87-19.83-49.42,6.1-3.57,12.47-7.29,17.02-9.95,5.31,23.25,10.14,46.12,16.01,68.72,1.23,4.76,5.82,8.97,9.6,12.69,15.45,15.23,31.18,30.17,47.96,46.32Z"/>
  <path class="cls-1" d="M689.89,779.76c-7.02,4.53-14.71,9.5-19.47,12.57-5.78-9.15-9.79-17.66-15.74-24.48-15.01-17.21-30.89-33.67-48.48-52.65,8.5,28.98,15.77,55.03,24.04,80.76,1.37,4.26,7.14,7.1,12.26,11.89-5.86,3.19-12.14,6.61-18.91,10.3-5.39-50.51-24.3-95.93-38.44-142.92,34.05,35.39,63.4,75.15,104.75,104.53Z"/>
  <path class="cls-1" d="M490.55,851.86c0-9.67,1.49-17.43-.27-24.38-6.2-24.54-13.51-48.81-20.18-72.39-10.15,26.13-16.76,85.82-10.2,97.92h-19.7c5.62-23.81,12-47.51,16.66-71.54,4.7-24.22,7.68-48.77,12.68-73.45,12.95,47.21,22.28,95.47,44.47,141.57-8.41,.81-17.01,1.64-23.45,2.26Z"/>
  <path class="cls-1" d="M320.84,829.63c-8.3-3.39-16.32-6.67-21.06-8.61,4.24-10,8.87-18.01,11.06-26.64,5.77-22.73,10.48-45.73,15.98-70.29-18.54,22.94-36.37,44.44-53.35,66.58-2.75,3.59-1.74,10.06-2.67,16.63-6.18-3.51-12.2-6.93-18.06-10.26,37.74-33.89,65.15-74.74,95.24-113.91-10.4,47.77-25.11,94.6-27.15,146.51Z"/>
  <path class="cls-1" d="M160.93,722.52c-5.59-6.63-11.31-13.42-19.54-23.17,17.63,4.24,22.51-7.64,29.78-16.18,13.68-16.08,27.42-32.1,41.91-49.06-30.91,6.63-79.92,32.4-85.47,46.12-4.38-6.8-8.07-12.54-10.27-15.97,45.54-19.44,90.69-38.72,137.38-58.65-33.47,37.58-68.88,71.85-93.79,116.9Z"/>
  <path class="cls-1" d="M709.95,618.42c20.83,22,38.91,41.66,57.79,60.52,3.51,3.51,10.27,3.78,16.78,5.96-3.88,5.23-8.05,10.84-12.4,16.69-28.22-42.06-65.39-74.39-100.01-109.65,46.05,16.95,90.93,36.98,140.76,46.34-3.66,6.78-7.95,14.72-14.16,26.21-2.2-16.54-12.56-18.71-22.77-22.12-20.99-7.02-41.64-15.04-65.98-23.95Z"/>
  <path class="cls-1" d="M828.62,604.56c-2.53,5.82-6.06,13.94-8.69,19.99-8.23-5.72-14.82-11.71-22.51-15.39-27.74-13.27-55.75-25.98-83.87-38.43-8.11-3.59-16.91-5.6-26.85-8.81,1.78-4.33,3.87-9.39,5.43-13.16,44.81,21.32,88.32,41.96,136.49,55.8Z"/>
  <path class="cls-1" d="M422.17,703.61c4.38,.58,9.17,1.21,12.46,1.64-2.85,24.75-6.1,48.73-8.24,72.81-2.13,23.98-9.12,47.91-1.78,73.5-8.09-.62-15.98-1.22-22.31-1.7,11.2-48.38,16.57-96.27,19.87-146.25Z"/>
  <path class="cls-1" d="M207.17,472.36c.44,3.57,1.05,8.39,1.55,12.47-49.36,4.01-98.15,5.32-147.04,18.85-.45-6.38-1.02-14.56-1.42-20.23,49.77,.85,97.25-5.95,146.9-11.09Z"/>
  <path class="cls-1" d="M286.07,93.57c5.42-2.53,13.01-6.07,18.06-8.42,15.53,47.13,35.9,91.21,57.17,135.83-3.07,1.47-7.79,3.73-10.99,5.26-19.97-45.31-36.41-90.85-64.23-132.67Z"/>
  <path class="cls-1" d="M667.56,113.74c-7.01,8.44-13.74,14.91-18.52,22.59-16.49,26.48-32.46,53.29-48.25,80.2-4.04,6.89-6.64,14.62-10.47,23.25-4.27-2.6-9.04-5.52-11.82-7.21,25.58-42.09,51.14-82.8,70.51-128.95,4.32,2.36,11.88,6.49,18.55,10.13Z"/>
  <path class="cls-1" d="M708.69,436.48c-.43-2.65-1.06-6.55-1.71-10.6,49.33-3.78,98.34-4.23,147.45-16.44,.41,5.42,.93,12.34,1.26,16.73-24.72,1.24-48.64,2.06-72.5,3.73-24.22,1.7-48.38,4.24-74.5,6.58Z"/>
  <path class="cls-1" d="M706.91,480.16c.48-2.78,1.16-6.68,1.72-9.89,48.74,6.07,96.84,9.67,146.84,10.91-.27,3.96-.75,10.9-1.05,15.21-48.76-7.97-97.27-12.01-147.51-16.23Z"/>
  <path class="cls-1" d="M311.54,659.87c2.66,1.7,6,3.83,8.92,5.7-28.82,39.7-56.22,79.54-81.18,123.07-2.84-1.79-8.65-5.46-12.35-7.79,30.49-38.62,57.17-78.96,84.61-120.98Z"/>
  <path class="cls-1" d="M294.7,646.79c2.03,1.58,5.13,4,8.23,6.42-32.11,37.14-63.02,74.34-90.49,115.66-.71-.45-3.75-2.15-6.51-4.23-2.83-2.13-5.38-4.64-6.64-5.75,35.48-33.99,63.85-73.16,95.41-112.09Z"/>
  <path class="cls-1" d="M498.34,205.09c.38,0-1.78,.19-3.9-.05-2.14-.24-4.23-.9-3.85-.82,6.54-48.94,12.95-96.89,19.52-146,2.8,.37,9.25,1.21,12.65,1.66-8.18,48.64-16.2,96.3-24.42,145.21Z"/>
  <path class="cls-1" d="M476.49,54.79c.41,0,3.99-.26,7.51,.08,3.06,.3,6.05,1.27,5.31,1.11-4.09,49.07-8.07,96.85-12.15,145.77h-7.41c2.23-48.6,4.45-96.98,6.74-146.96Z"/>
  <path class="cls-1" d="M232.31,567.36c1.34,3.03,2.89,6.55,4.04,9.16-43.4,23.11-86.95,43.76-128.01,72.17-1.89-3.36-5.08-9.01-7.93-14.08,46.05-18.5,88.06-42.6,131.89-67.25Z"/>
  <path class="cls-1" d="M216.76,530.89c.7,2.39,1.79,6.13,2.51,8.61-46.84,14.94-92.68,29.35-137.99,49.81-1.49-4.33-3.55-10.36-4.44-12.94,46.93-15.25,92.62-30.11,139.92-45.48Z"/>
  <path class="cls-1" d="M709.89,458.37v-9.75c48.84-.16,96.93,2.69,145.98-2.86v16.47c-48.39-6.64-96.95-2.84-145.98-3.86Z"/>
  <path class="cls-1" d="M223.9,548.87c1.18,3.47,2.45,7.21,2.92,8.6-44.8,20.14-88.67,39.85-134.23,60.33-1.07-2.49-3.59-8.35-5.4-12.55,47.01-15.15,90.94-35.64,136.71-56.38Z"/>
</svg>