<?xml version="1.0" encoding="UTF-8"?>
<svg id="_レイヤー_1" data-name="レイヤー 1" xmlns="http://www.w3.org/2000/svg" viewBox="0 0 600 600">
  <defs>
    <style>
      .cls-1 {
        fill: #b5b5b6;
      }
    </style>
  </defs>
  <path class="cls-1" d="M108.13,462.15c-5.15-6.7-9.67-12.57-14.68-19.08-15.03,6.89-29.83,13.66-45.33,20.76-5.5-9.46-10.68-18.39-16.22-27.92,13.67-9.72,26.71-19,40.59-28.88-2.96-7.24-5.87-14.33-9.09-22.19-16.4,2.61-32.48,5.17-49.25,7.85-2.87-10.63-5.46-20.24-8.32-30.81,15.6-5.85,30.86-11.57,46.71-17.51-.76-6.44-.84-12.85-2.55-18.79-.69-2.41-4.73-5.08-7.54-5.46C28.46,318.2,14.36,317.02,0,315.54v-31.81c14.18-1.47,27.88-3.24,41.64-4.15,5.91-.39,9.9-1.92,8.72-8.26-1.19-6.41,8.9-15.24-4.86-19.24-13.19-3.83-25.87-9.46-38.45-14.18-.35-1.28-.84-2.05-.68-2.67q7.14-28.69,37.22-23.59c6.23,1.05,12.52,1.71,19.64,2.67,3.06-7.17,6.08-14.23,9.36-21.94-13.39-9.53-26.43-18.81-40.53-28.85,5.18-9.18,10.21-18.09,15.86-28.11,15.13,6.91,29.89,13.64,45.48,20.76,4.81-6.22,9.51-12.32,14.72-19.05-10.67-12.93-21.06-25.51-31.79-38.5,7.8-7.54,15.03-14.53,23.17-22.39,12.39,10.16,24.97,20.49,38.12,31.28,6.35-4.85,12.49-9.55,19.1-14.6-6.87-15-13.52-29.53-20.77-45.36,9.16-5.32,18.31-10.64,27.95-16.24,9.86,13.9,19.13,26.96,28.4,40.03,1.54-.24,2.66-.22,3.63-.6q20.2-8.03,15.89-29.36-5.73-28.38,22.3-35.03c1.04-.25,2.13-.35,3.94-.63,5.73,15.33,11.45,30.62,17.33,46.36,6.69-.82,13.12-.92,19.06-2.68,2.36-.7,4.8-4.91,5.19-7.8,1.84-13.68,2.99-27.46,4.45-41.92h31.75c1.4,12.64,3.63,25.48,3.98,38.37,.25,9.09,3.14,12.83,12.26,12.37,3.94-.2,7.97,1.16,12.56,1.91,5.93-15.84,11.66-31.13,17.57-46.92,6.96,1.8,13.32,4.18,19.86,4.97,9.36,1.13,11.74,5.56,9.71,14.32-2.03,8.71-2.25,17.9-4.84,26.41-2.8,9.21-.38,14.01,8.73,16.28,3.59,.89,6.95,2.69,11.59,4.55,9.36-13.08,18.83-26.33,29.01-40.55,9.25,5.33,18.15,10.46,27.9,16.08-6.95,15.23-13.7,30.02-20.72,45.42,6.44,4.96,12.55,9.67,19.07,14.69,12.82-10.58,25.16-20.77,38.13-31.47,7.23,7.88,14.19,15.48,21.97,23.97-9.47,11.46-19.85,24.03-30.57,37.02,4.85,6.39,9.33,12.29,14.51,19.12,14.84-6.76,29.63-13.49,45.39-20.67,5.33,9.05,10.56,17.93,16.33,27.73-13.71,9.81-26.95,19.3-40.29,28.85,.53,1.93,.77,3.39,1.32,4.71,7.54,18.12,7.52,17.96,27.02,14.94,9.8-1.51,22.04-6.32,28.87-2.3,6.09,3.58,6.25,17.25,9.41,27.75-15.88,5.99-31.36,11.84-47.23,17.83,1.11,7.94,2.12,15.25,3.27,23.48,16.34,1.72,32.56,3.42,49.36,5.19v31.77c-16.23,1.72-32.42,3.43-49.17,5.2-1.17,7.6-2.3,14.87-3.62,23.41,15.56,5.88,31.07,11.74,46.79,17.68-.66,2.81-1.16,4.94-1.66,7.07q-5.99,25.49-32.02,19.77c-.36-.08-.7-.3-1.06-.37q-22.83-4.94-31.45,18.77c13.01,9.3,26.28,18.79,40.34,28.84-5.4,9.38-10.54,18.31-16.08,27.94-15.35-7.01-30.15-13.77-45.41-20.74-5.03,6.59-9.72,12.74-14.62,19.15,10.66,12.91,20.87,25.26,31.6,38.24-8.09,7.22-15.82,14.1-24.28,21.66-11.13-9.2-23.47-19.4-36.68-30.31-6.19,4.61-12.36,9.2-19.31,14.37,6.86,15.03,13.61,29.83,20.76,45.51-9.23,5.4-18.13,10.6-27.79,16.24-9.87-13.79-19.36-27.05-29.09-40.64-7.42,3.07-14.26,5.91-22.2,9.2,2.16,12.48,3.94,24.98,6.59,37.29,1.92,8.93,.13,14.04-9.87,15.23-6.21,.74-12.23,3.05-19.49,4.95-5-13.28-10.28-26.31-14.74-39.61-1.89-5.63-4.38-9.16-10.2-6.25-5.88,2.94-16.9-3.78-17.29,10.08-.39,13.76-2.62,27.47-4.09,41.66h-31.75c-1.74-16.52-3.46-32.74-5.22-49.4-7.79-1.15-15.08-2.23-23.47-3.47-5.77,15.39-11.47,30.64-17.54,46.84-9.81-2.5-19.38-4.94-30.84-7.86,2.55-16.22,5.06-32.23,7.74-49.31-7.04-3.04-14.1-6.09-21.93-9.47-9.65,13.51-19.15,26.8-29.08,40.7-9.22-5.29-17.9-10.27-27.95-16.04,6.82-14.92,13.56-29.64,20.76-45.38-6.03-4.7-12.09-9.42-18.96-14.77-12.82,10.56-25.4,20.91-38.55,31.75-7.43-8.04-14.45-15.63-21.99-23.78,9.85-11.94,20.04-24.29,30.95-37.51Zm85.66-89.91c-18.99,11.02-37.34,21.07-55.06,32.13-13.44,8.39-17.15,25.49-7.48,37.08,32.46,38.9,73.67,63.99,123.43,73.99,15.09,3.03,28.82-7.37,29.45-22.04,.93-21.6,.24-43.28,.24-65.73-37.53-5.92-67.61-23.79-90.58-55.43Zm212.66,.11c-21.9,29.2-49.33,47.77-84.59,54.2-2.59,.47-6.16,5.3-6.25,8.2-.53,18.32-.64,36.69-.05,55.01,.59,18.48,14.78,29.53,32.91,25.36,46.95-10.77,86.5-34.31,118.11-70.78,11.79-13.6,9.43-30.99-5.84-40.45-17.44-10.81-35.48-20.66-54.29-31.54ZM184.03,243.75c-19.8-11.29-38.49-22.89-58.04-32.79-13.31-6.74-29.24,.95-34.41,15.82-15.3,43.94-16.47,88.55-3.95,133.29,4.9,17.51,22.3,24.6,38.29,16.04,16.11-8.62,31.93-17.84,47.5-27.4,2.51-1.54,5.04-6.85,4.25-9.38-10.06-32.1-7.6-63.31,6.37-95.58Zm232.13-.08c13.91,32.35,16.58,64.27,5.86,97.01-.67,2.06,2.4,6.7,4.9,8.23,14.96,9.15,30.14,17.96,45.48,26.45,17.86,9.89,35.76,2.14,40.81-17.72,2.57-10.1,4.73-20.38,5.97-30.72,4.15-34.63,1.01-68.65-11.18-101.44-5.07-13.63-20.64-21.01-33.08-14.8-19.92,9.94-38.92,21.72-58.76,32.98Zm-216.3-25.72c33.57-31.46,34.16-31.67,78.29-45.11,2.79-.85,6.27-5.31,6.36-8.18,.54-18.31,.63-36.66,.08-54.98-.54-18.12-13.99-29.35-31.63-25.71-43.67,9.01-80.95,30.17-111.7,62.32-12.4,12.96-9.89,31.08,5.19,40.5,17.4,10.86,35.42,20.72,53.42,31.16Zm199.79,.37c18.85-10.94,36.87-20.81,54.26-31.69,14.3-8.94,17.39-26.45,6.12-38.73-30.97-33.74-69.28-55.28-114.24-64.05-16.58-3.23-29.57,8.04-30.15,24.99-.63,18.68-.48,37.41-.05,56.1,.06,2.67,3.24,7.16,5.57,7.59,31.32,5.84,57.26,20.85,78.49,45.79Zm-190.48,144.97c19.7,25.84,43.69,41.16,75.11,46.13,0-16.93,1.06-33.04-.29-48.95-1.44-17-20.71-26.56-36.58-18.69-12.66,6.28-24.7,13.83-38.24,21.5Zm106.53,46.27c31.86-5.45,56.08-20.51,75.09-46.36-13.61-7.71-26.17-15.89-39.62-22.17-15.78-7.37-34.16,3.75-35.27,21.17-.97,15.23-.2,30.57-.2,47.37Zm-115.63-156.47c-12.69,25.12-14.15,60.58-3.59,82.48,11.61-6.71,23.54-12.84,34.66-20.21,17.05-11.3,16.56-33.62-.71-44.56-9.73-6.17-19.9-11.64-30.36-17.71Zm200.39-.21c-11.01,6.37-21.58,11.92-31.55,18.39-15.8,10.26-16.99,31.51-1.77,42.51,11.6,8.39,24.58,14.85,37.75,22.64,8.58-29.32,8.1-56.39-4.43-83.54Zm-184.2-25.48c11.45,6.5,21.44,13.1,32.19,18.06,15.01,6.93,33.4-2.27,35.37-18.1,1.5-12.05,.3-24.45,.3-37.61-26.92,4.61-49.01,16.27-67.85,37.65Zm167.78,.13c-18.84-21.25-40.81-33.23-67.88-37.65,0,13.18-1.3,25.91,.34,38.26,1.92,14.47,19.01,23.77,32.73,18.04,11.85-4.95,22.79-12.1,34.82-18.65Zm-63.61,72.23c.04-11.87-8.45-20.45-20.27-20.49-11.86-.04-20.43,8.45-20.48,20.28-.04,11.87,8.44,20.44,20.27,20.48,11.87,.04,20.43-8.44,20.47-20.27Z"/>
</svg>