<?xml version="1.0" encoding="UTF-8"?>
<svg id="_レイヤー_1" data-name="レイヤー 1" xmlns="http://www.w3.org/2000/svg" viewBox="0 0 288.47 181.36">
  <defs>
    <style>
      .cls-1 {
        fill: #fff;
      }
    </style>
  </defs>
  <path d="M46.54,71.54c-2.52-1.49-5.04-2.98-8.32-4.92,.47,2.13,.71,3.19,1.02,4.6-4.01,.21-5.94-2.4-7.94-4.71-.22-.25,.42-1.86,.98-2.09,4.54-1.92,13.15,1.82,14.26,7.12Z"/>
  <path d="M27.4,72.95c-5.73-3.1-11.08-6-16.43-8.9,5.02-2.87,16.14,3,16.43,8.9Z"/>
  <path d="M51.55,69.55c3.91,2.23,7.82,4.45,11.97,6.82-3.17,1.86-8.83-.94-12.51-5.71,.18-.37,.36-.74,.54-1.11Z"/>
  <path d="M30.32,69.69c3.72,2.38,7.45,4.76,11.4,7.29-3.26,1.3-9.27-2.03-12.06-6.29,.22-.34,.44-.67,.67-1.01Z"/>
  <path class="cls-1" d="M74.64,100.42c-7.1,5.16-14.19,10.33-21.29,15.49-.22-.3-.44-.6-.66-.89,7.06-5.2,14.11-10.4,21.17-15.6,.26,.33,.52,.67,.79,1Z"/>
  <path class="cls-1" d="M46.02,115.82c7.74-5.69,15.49-11.38,23.23-17.06,.2,.27,.4,.54,.6,.82-7.78,5.7-15.55,11.41-23.33,17.11-.17-.29-.33-.58-.5-.86Z"/>
  <path class="cls-1" d="M72.12,106.64c-3.53,2.54-7.07,5.09-10.6,7.63-.23-.32-.47-.64-.7-.97,3.53-2.55,7.05-5.1,10.58-7.66,.24,.33,.48,.66,.72,.99Z"/>
  <path class="cls-1" d="M109.82,149.62h19.08c0,.15,0,.29,0,.44h-19.48c.13-.15,.26-.29,.39-.44Z"/>
  <path d="M86.29,118.98c-1.76,0-2.31,0-2.87,0-8.02,.02-8.42-.37-6.8-8.15,.82-3.93,1.89-7.81,3.09-11.64,1.33-4.24,4.33-5.23,11.07-4.17,3.85,.61,4.84,2.9,4.71,6.49-.14,4,.46,8.02,.31,12.02-.19,4.92-1.63,5.97-6.55,5.6-1.38-.1-2.77-.15-2.95-.16Zm5.18-12.95c-.26-.35-.53-.69-.79-1.04-3.47,2.57-6.94,5.14-10.41,7.72,.27,.35,.54,.7,.82,1.05,3.46-2.58,6.93-5.15,10.39-7.73Zm-.14-4.27c-.25-.33-.5-.67-.75-1-3.11,2.33-6.23,4.65-9.34,6.98,.21,.28,.42,.56,.63,.83,3.15-2.27,6.31-4.54,9.46-6.81Z"/>
  <path d="M63.09,119.72c5.53,.47,6.34,2.04,4.49,6.84-1.35,3.52-1.93,7.41-2.33,11.19-.25,2.31-.63,3.76-3.23,3.67-2.89-.1-5.8,.03-8.66-.29-3.59-.4-4.71-3.59-4.17-6.15,.92-4.34,2.22-9.02,4.84-12.43,1.58-2.05,5.95-1.97,9.06-2.84Zm-.14,6.93c-.3-.36-.6-.71-.9-1.07-2.97,2.23-5.95,4.47-8.92,6.7l.73,.91c3.03-2.18,6.06-4.37,9.08-6.55Z"/>
  <g>
    <path d="M235.96,149.43c-2.69,3.84,1.82,9.67-5.19,10.28-8.96,.78-8.96,.83-11.45-8.45-8.38,.64-16.81,1.06-25.18,1.96-15.18,1.64-30.31,3.67-45.49,5.28-3.35,.36-4.71,1.69-4.63,4.86,0,.14-.07,.28-.06,.41,.28,2.61,.57,5.22,.86,7.83,3.56-.56,7.07,1.39,10.84-1.83,2.41-2.06,7.34-1.41,11.15-1.53,3.59-.11,7.2,.46,10.8,.53,2.94,.06,5.17,.43,5.2,4.22,.04,4.62-1.54,7.47-5.18,7.6-10.83,.38-21.66,.81-32.49,.77-14.72-.04-29.44-.76-44.15-.69-11.88,.06-23.14-2.53-34.25-6.29-2.2-.74-4.33-1.62-3.54-4.62,.73-2.81,2.45-2.9,5.1-2.35,5.46,1.15,6.12,.46,6.73-4.97,.09-.83,.27-1.65,.35-2.48,.54-5.54-.13-5.84-5.43-6.96-12.61-2.66-25.19-5.51-37.64-8.83-4.03-1.07-8.41-3.37-9.16-8.19-.68-4.36,2.23-7.47,5.44-10.17,10.72-9.03,21.4-18.12,32.1-27.17,1.78-1.5,3.63-2.92,6.15-4.93-20.74-2.81-38.43-11.36-55.26-21.9,.23-.58,.45-1.17,.68-1.75,1.61,.65,3.31,1.13,4.81,1.97,14.13,7.95,29.09,13.76,44.86,17.52,6.4,1.52,12.48,1.65,19.01-.5,5.56-1.83,10.86-3.31,15.16-7.63,3.6-3.62,8.43-3.63,13.27-3.19,1.88,.17,4.44,.78,4.6-2.59,.15-3.31-2.09-3.36-4.43-3.5-14-.84-28-1.77-42.01-2.52-1.81-.1-3.73,1.16-5.49,.93-1.9-.25-3.67-1.5-5.5-2.32,.82-.76,1.65-2.18,2.45-2.16,4.72,.1,9.43,.55,14.14,.86,11.08,.73,22.16,1.47,33.25,2.17,.74,.05,1.5-.19,2.31-1.29-4.98-.49-9.96-1.08-14.95-1.46-26.58-2.01-53.16-3.97-79.74-5.96-1.94-.15-3.85-.53-5.79-.67-5.71-.41-6.59-1.11-6.78-6.94-.25-8.09,3.08-14.83,8.52-20.61,6.81-7.24,15.12-12.38,24.47-15.38,12.13-3.9,24.37-7.56,36.78-10.41C95.81,.72,120.85-1.89,146.09-.74c18.16,.82,36.23,3.15,53.85,7.96,1.07,.29,1.97,1.19,2.95,1.81-.72,.95-1.32,2.05-2.2,2.81-1.37,1.17-3.03,1.99-4.4,3.16-3.14,2.69-6.33,3.54-10.31,1.63-1.92-.93-4.31-.87-6.48-1.32-1.64-.34-3.26-.78-4.89-1.18,.08-.58,.16-1.16,.24-1.73,3.51,.36,7.32-.03,10.45,1.25,5.28,2.16,8.74-.11,13.1-3.99-6.99-1.47-13.32-3.25-19.76-4.06-11.15-1.41-22.37-2.33-33.59-3.22-3.71-.29-7.48,.06-11.22,.27-11.31,.62-22.68,.84-33.92,2.13-11.42,1.31-22.79,3.36-34.04,5.72-15,3.15-29.42,8.16-42.92,15.55-8.96,4.9-14.98,12.2-17.41,22.22-.35,1.46-.39,3.03-.39,4.55,0,2.4,.95,3.74,3.69,3.95,15.91,1.18,31.82,2.5,47.72,3.83,16.19,1.36,32.36,2.83,48.55,4.14,1.69,.14,3.48-.41,5.17-.84,2.14-.54,4.29-1.98,6.34-1.81,5.01,.43,8.29-2.6,11.91-5,7.05-4.68,14.03-9.48,21.19-14.33-1.06-.59-2.01-1.11-2.95-1.63,.12-.5,.24-.99,.36-1.49,2.47,.42,4.95,.84,7.42,1.25,.04,.44,.09,.87,.13,1.31-.88,.77-1.7,1.63-2.66,2.28-9.42,6.41-18.8,12.9-28.37,19.08-1.67,1.08-4.23,.68-6.31,1.23-1.79,.47-3.48,1.32-5.21,2,1.05,1.22,2.04,2.5,3.16,3.65,7.29,7.55,17.02,7.69,26.49,8.76,7.85,.88,15.83,1.41,23.42,3.38,3.57,.92,6.3,4.92,9.53,7.38,1.21,.92,2.94,2.24,4.1,1.97,14.33-3.29,28.9-6.09,42.04-13.03,7.96-4.2,15.84-8.77,23.05-14.12,8.51-6.31,11.68-15.63,7.73-22.9-2.96-5.45-7.03-10.91-11.94-14.56-6.35-4.73-14.04-7.67-21.15-11.38-.81-.42-1.62-.86-2.43-1.29,.04-.41,.09-.83,.13-1.24,1.69,.14,3.55-.12,5.06,.49,10.37,4.14,19.85,9.41,27.91,17.61,12.61,12.82,6.67,28.16-3.53,36.12-15.91,12.43-34.03,20.26-53.71,24.63-3.92,.87-7.82,2.03-11.52,3.55-1.16,.47-2.44,2.65-2.31,3.9,.6,5.52,2.69,9.7,8.48,12.45,9.41,4.46,19.17,6.88,29.78,8.83-.22-2.55-.47-4.55-.55-6.55-.12-3.18,1.32-4.99,4.68-4.97,.97,0,1.95-.15,2.92-.07,12.6,1.11,10.6-.37,10.99,10.79,.09,2.5,.92,3.67,3.49,4.2,5.17,1.05,10.27,2.42,15.36,3.83,2.75,.76,4.4,.19,5.49-2.65,2.5-6.47,5.43-12.78,7.84-19.28,1.1-2.97,2.43-3.64,5.56-3.03,8.79,1.7,7.68,.65,7.48,9.44-.12,5.11-.96,10.21-1.37,15.32-.22,2.83-.7,5.52,2.11,7.91,2.99,2.53,1.64,8.61-2.27,10.1-2.64,1.01-2.99,2.42-2.68,4.69,.75,5.49,1.43,10.99,2.25,16.47,.61,4.1-.1,5.07-4.11,5.13q-8.09,.11-11.22-7.39c-1.93-4.61-3.92-9.2-5.77-13.84-.9-2.26-2.3-3.25-4.77-3-5.49,.56-11,.99-15.89,1.42Zm-.97-20.6q-2.46,6.11-9.22,5.94c-.42-.01-.84-.06-1.25-.03-4.04,.21-6.86-1.09-6.83-5.69,.02-3.14-1.66-4.06-4.57-4.65-13-2.61-25.48-6.44-36.49-14.38-13.2-9.51-28.31-14.99-44.26-17.19-12.46-1.72-25.18-2.05-37.79-2.07-6.89,0-13.78,1.93-20.67,2.99-.13,.48-.25,.95-.38,1.43,4.83-.58,4.98,1.51,4.02,4.99-1.14,4.13-1.87,8.4-2.35,12.66-.4,3.65-2.13,4.99-5.67,5.08-5.4,.14-10.8,.56-16.2,1-9.63,.78-18.17,4.11-24.55,11.61-1.22,1.43-2.08,4.27-1.48,5.85,.67,1.75,2.99,3.51,4.94,4.04,9.34,2.58,18.78,4.82,28.24,6.93,.97,.22,3.12-1.02,3.35-1.93,1.07-4.22,4.06-4.43,7.45-4.21,7.2,.47,14.49,.42,21.58,1.58,5.18,.84,11.35-1.01,15.38,4.28,.24,.31,1.04,.3,1.57,.28,13.36-.63,26.73-1.14,40.07-2,8.03-.51,16.03-1.56,24.04-2.39,2.92-.3,4.46,1.01,4.81,3.87,.11,.91,.32,1.82,.62,3.49,32.21-5.32,64.9-4.16,96.83-10.1,.03-.61,.06-1.23,.09-1.84-13.8-3.19-27.59-6.39-41.3-9.56Zm-59.41-23.76c-.84-3.7-1.39-6.27-2.01-8.81-1.33-5.43-4.42-8.97-10.18-10.14-18.61-3.79-37.46-4.44-56.36-4.82-4.89-.1-7.95,2.31-11.47,6.33,28.24-.72,55.11,1.75,80.02,17.44Zm-91.47,61.6c2.06,.14,3.58,.35,5.09,.32,6.53-.13,13.05-.46,19.58-.42,1.56,.01,4.09,.82,4.5,1.9,1.46,3.83,4.41,3.31,7.26,3.19,2.49-.1,4.95-.64,7.44-.8,8.16-.55,8.07-.51,7.76-8.63-.1-2.49-.93-3.31-3.42-3.45-11.63-.65-23.26-1.52-34.89-2.26-4.21-.27-8.44-.42-12.83-.63-.17,3.72-.31,7.01-.48,10.78Zm-16.94,3.4c-.1,.3-.21,.6-.31,.89,4.15,1.36,8.22,3.5,12.46,3.93,10.19,1.03,20.46,1.49,30.71,1.76,16.5,.44,33.01,.55,49.52,.77,5.42,.07,10.84,.24,16.25-.02,1.11-.05,2.14-1.83,3.21-2.82-1.03-.76-2.02-2.11-3.1-2.19-4.43-.32-8.88-.29-13.33-.29-1.23,0-2.99-.15-3.59,.56-3.45,4.05-7.71,2.98-11.96,2.34-6.39-.96-6.37-.96-6.19-7.48,.07-2.72,.01-5.45,.01-8.18h-2.22c0,3.21-.03,6.41,0,9.62,.06,5.29-.12,5.46-5.58,5.7-5.67,.25-11.34,.71-17.02,.82-2.83,.06-6.5,1.1-6.9-3.74-.03-.36-1.36-.87-2.08-.86-8.18,.08-16.36,.26-24.54,.39-.9,.01-1.81-.11-3.07-.19,.64-5.48,1.24-10.64,1.84-15.8-.47-.06-.93-.12-1.4-.18-.22,.97-.52,1.93-.63,2.92-.32,2.89-.49,5.81-.87,8.69-.62,4.8-2.48,6-6.97,4.65-1.42-.43-2.84-.87-4.26-1.3Zm4.65-25.99l-.48-.89-4.24,2.74c1.33,.95,2.61,1.98,4.02,2.8,.68,.39,1.6,.43,2.42,.5,8.96,.81,17.93,1.66,26.9,2.3,1.36,.1,3.87-.68,4.01-1.4,.45-2.41-1.1-3.64-3.66-3.82-9.66-.68-19.31-1.47-28.97-2.22Zm95.6,2.28l-.02-.13c-6.76,.62-13.52,1.15-20.26,1.92-1.17,.13-2.23,1.26-3.35,1.92,1.13,.76,2.25,2.13,3.4,2.16,4.01,.12,8.04-.08,12.04-.43,4.68-.42,9.35-1.04,13.99-1.79,.92-.15,1.68-1.31,2.51-2.01-.97-.55-1.89-1.42-2.91-1.57-1.77-.26-3.6-.07-5.4-.07Zm-58.58,5.61c-.06,.59-.12,1.17-.18,1.76h32.32c-.32-.79-.51-1.7-.71-1.7-10.47-.07-20.95-.06-31.42-.06Zm-34.2-51.56c-.26-.33-.52-.67-.79-1-7.06,5.2-14.11,10.4-21.17,15.6,.22,.3,.44,.6,.66,.89,7.1-5.16,14.19-10.33,21.29-15.49Zm-28.63,15.4c.17,.29,.33,.58,.5,.86,7.78-5.7,15.55-11.41,23.33-17.11-.2-.27-.4-.54-.6-.82-7.74,5.69-15.49,11.38-23.23,17.06Zm214.67,12.93c.29,.39,.57,.79,.86,1.18,4.78-3.48,9.57-6.95,14.35-10.43-.27-.37-.54-.74-.81-1.11-4.8,3.45-9.6,6.9-14.4,10.35Zm2.4-6.15l.92,1.12c3.9-2.9,7.8-5.8,11.71-8.7-.24-.31-.47-.61-.71-.92-3.97,2.83-7.95,5.67-11.92,8.5Zm2.1-5.67c.26,.35,.51,.7,.77,1.04,3.49-2.66,6.99-5.32,10.48-7.98l-.62-.79c-3.54,2.58-7.09,5.15-10.63,7.73Zm-193.07-10.28c-.24-.33-.48-.66-.72-.99-3.53,2.55-7.05,5.1-10.58,7.66,.23,.32,.47,.64,.7,.97,3.53-2.54,7.07-5.09,10.6-7.63Zm203.3,17.55c-.22-.31-.45-.62-.67-.93-3.15,2.26-6.3,4.52-9.46,6.78l.69,.95c3.15-2.27,6.29-4.54,9.44-6.81Zm-53.93,3c.27,.32,.53,.63,.8,.95,2.82-2.09,5.65-4.18,8.47-6.28-.24-.31-.48-.62-.73-.93-2.85,2.09-5.7,4.17-8.54,6.26Zm-111.67,22.44c-.13,.15-.26,.29-.39,.44h19.48c0-.15,0-.29,0-.44h-19.08Zm121.26-32.31c-.26-.33-.51-.66-.77-1-3.1,2.32-6.2,4.65-9.31,6.97,.21,.27,.43,.54,.64,.81,3.14-2.26,6.29-4.52,9.43-6.78Zm31.28,36.53c.28,.36,.56,.72,.84,1.09,2.49-1.96,4.99-3.92,7.48-5.88-.21-.27-.43-.53-.64-.8-2.56,1.86-5.12,3.73-7.68,5.59Zm-31.41-1.62c-.28-.43-.56-.85-.84-1.28-2.2,1.66-4.4,3.33-6.6,4.99,.24,.33,.48,.65,.72,.98,2.24-1.56,4.49-3.12,6.73-4.69Zm-.86-38.45c-.2-.28-.4-.56-.61-.85-3.12,2.27-6.23,4.54-9.35,6.81,.17,.24,.35,.48,.52,.73,3.15-2.23,6.29-4.46,9.44-6.69Z"/>
    <path d="M212.32,16.75c-1.12,.99-2.13,2.18-3.39,2.95-21.18,13.02-42.4,25.96-63.58,38.99-6.37,3.92-12.59,8.08-18.96,11.99-.84,.52-2.17,.24-3.27,.33,.48-1.11,.63-2.75,1.48-3.27,25.53-15.68,51.13-31.24,76.73-46.82,2.25-1.37,4.47-2.81,6.79-4.08,1.08-.59,2.36-.83,3.55-1.24,.22,.38,.45,.76,.67,1.14Z"/>
    <path d="M161.33,22.72c5.55,.6,11.1,1.2,16.65,1.8,.04-.5,.09-1.01,.13-1.51-3.4-.63-6.8-1.27-10.67-1.99,3.64-3.13,11.28-2.38,16.48,1.04-3.12,4.76-5.25,5.6-10.53,4.63-3.12-.58-6.3-.77-9.45-1.2-1.04-.14-2.05-.49-3.08-.75,.16-.67,.32-1.35,.48-2.02Z"/>
    <path d="M151.95,34.66c4.03-3.95,9.3,2.91,12.89-2.57-3.51-.57-6.84-1.12-10.16-1.66,.08-.46,.15-.92,.23-1.37,5.43-2.48,10.22,.28,15.33,2.16-4.42,6.12-9.87,7.17-18.29,3.45Z"/>
    <path class="cls-1" d="M108.84,151.98c10.47,0,20.95,0,31.42,.06,.2,0,.39,.91,.71,1.7h-32.32c.06-.59,.12-1.17,.18-1.76Z"/>
    <path class="cls-1" d="M260.69,128.74c4.8-3.45,9.6-6.9,14.4-10.35,.27,.37,.54,.74,.81,1.11-4.78,3.48-9.57,6.95-14.35,10.43-.29-.39-.57-.79-.86-1.18Z"/>
    <path class="cls-1" d="M263.09,122.59c3.97-2.83,7.95-5.67,11.92-8.5,.24,.31,.47,.61,.71,.92-3.9,2.9-7.8,5.8-11.71,8.7l-.92-1.12Z"/>
    <path class="cls-1" d="M265.19,116.92c3.54-2.58,7.09-5.15,10.63-7.73l.62,.79c-3.49,2.66-6.99,5.32-10.48,7.98-.26-.35-.51-.7-.77-1.04Z"/>
    <path class="cls-1" d="M275.42,124.18c-3.15,2.27-6.29,4.54-9.44,6.81l-.69-.95c3.15-2.26,6.3-4.52,9.46-6.78,.22,.31,.45,.62,.67,.93Z"/>
    <path class="cls-1" d="M221.49,127.18c2.85-2.09,5.7-4.17,8.54-6.26,.24,.31,.48,.62,.73,.93-2.82,2.09-5.65,4.18-8.47,6.28-.27-.32-.53-.63-.8-.95Z"/>
    <path class="cls-1" d="M231.08,117.31c-3.14,2.26-6.29,4.52-9.43,6.78-.21-.27-.43-.54-.64-.81,3.1-2.32,6.2-4.65,9.31-6.97,.26,.33,.51,.66,.77,1Z"/>
    <path class="cls-1" d="M262.36,153.84c2.56-1.86,5.12-3.73,7.68-5.59,.21,.27,.43,.53,.64,.8-2.49,1.96-4.99,3.92-7.48,5.88-.28-.36-.56-.72-.84-1.09Z"/>
    <path class="cls-1" d="M230.95,152.23c-2.24,1.56-4.49,3.12-6.73,4.69-.24-.33-.48-.65-.72-.98,2.2-1.66,4.4-3.33,6.6-4.99,.28,.43,.56,.85,.84,1.28Z"/>
    <path class="cls-1" d="M230.09,113.78c-3.15,2.23-6.29,4.46-9.44,6.69-.17-.24-.35-.48-.52-.73,3.12-2.27,6.23-4.54,9.35-6.81,.2,.28,.4,.56,.61,.85Z"/>
    <path d="M119.92,140.23c-5.79-.43-11.58-.95-17.37-1.25-3.32-.18-4.78-1.65-4.51-4.99,.92-11.59,1.72-23.2,2.79-34.78,.09-.97,1.82-2.44,2.92-2.56,4.8-.53,9.63-.79,14.46-.88,3.88-.08,7.78,.05,11.64,.39,5.98,.53,7.78,3.54,7.54,9.54-.31,7.73,.2,15.49,.35,23.24,.03,1.66,.09,3.34-.05,4.99-.3,3.68-1.97,5.93-6.06,5.81-3.88-.12-7.77-.03-11.66-.03-.01,.18-.02,.35-.03,.53Zm14.95-21.64h.09c0-4.99,.19-10-.13-14.97-.08-1.33-1.69-3.62-2.67-3.66-8.82-.32-17.65-.32-26.48-.16-.91,.02-2.5,1.7-2.58,2.71-.83,9.93-1.36,19.89-2.1,29.83-.21,2.89,1.05,4.09,3.75,4.19,8.72,.33,17.44,.63,26.16,1.02,2.91,.13,3.99-1.24,3.96-3.98-.06-4.99-.02-9.99-.02-14.98Z"/>
    <path d="M165.89,126.74c-1.4-.35-4-.54-6.07-1.69-1.22-.68-2.37-2.98-2.16-4.33,.2-1.28,2.21-3.22,3.44-3.23,3.8-.02,7.66,.48,11.36,1.37,1.1,.26,2.45,2.54,2.36,3.79-.1,1.27-1.63,2.85-2.93,3.48-1.39,.67-3.25,.39-5.99,.62Z"/>
  </g>
  <path d="M77.13,130.27c-.91-1.09-2.8-2.36-2.69-3.42,.22-2.04,1.18-5.22,2.56-5.66,2.75-.89,6.04-.56,9-.09,1.27,.2,3.03,1.94,3.16,3.14,.11,1.03-1.57,2.77-2.83,3.32-2.64,1.13-5.54,1.68-9.2,2.71Z"/>
  <path class="cls-1" d="M91.47,106.04c-3.46,2.58-6.93,5.15-10.39,7.73-.27-.35-.54-.7-.82-1.05,3.47-2.57,6.94-5.14,10.41-7.72,.26,.35,.53,.69,.79,1.04Z"/>
  <path class="cls-1" d="M91.33,101.76c-3.15,2.27-6.31,4.54-9.46,6.81-.21-.28-.42-.56-.63-.83,3.11-2.33,6.23-4.65,9.34-6.98,.25,.33,.5,.67,.75,1Z"/>
  <path class="cls-1" d="M62.95,126.65c-3.03,2.18-6.06,4.37-9.08,6.55l-.73-.91c2.97-2.23,5.95-4.47,8.92-6.7,.3,.36,.6,.71,.9,1.07Z"/>
  <path d="M104.87,100.72c3.17,1.02,7.16,1.32,7.5,2.6,.95,3.54,.92,7.62,.08,11.2-.25,1.07-4.46,1.45-6.89,1.57-.5,.03-1.62-2.49-1.61-3.83,.01-3.4,.5-6.81,.92-11.54Z"/>
</svg>