<?xml version="1.0" encoding="UTF-8"?>
<svg id="_レイヤー_1" data-name="レイヤー 1" xmlns="http://www.w3.org/2000/svg" viewBox="0 0 434.12 572.44">
  <path d="M428.07,221.43c-2.68,2.03-5.86,3.63-7.96,6.14-50.09,59.81-100.14,119.66-149.88,179.76-2.87,3.47-3.47,9.13-4.29,13.91-.64,3.73,.09,7.68,.1,11.53,.1,20.48,.11,20.85-19.74,21.97-7.58,.43-7.19,4.83-7.19,9.85,0,29.07-.02,58.13-.02,87.2,0,2.45,.18,4.92-.03,7.35-.5,5.61,1.45,13.44-7.53,13.39-9.01-.05-7.19-7.89-7.28-13.48-.23-14.71,.19-29.43-.37-44.12-.1-2.64-3.63-5.15-5.57-7.71-1.98,2.53-5.57,5.01-5.67,7.61-.56,15.04-.19,30.11-.35,45.17-.06,5.41,1.08,12.41-7.21,12.59-8.38,.17-7.52-6.89-7.55-12.28-.18-30.82-.5-61.64,.02-92.45,.16-9.66-1.84-13.91-12.54-13.21-12.56,.82-15.95-1.88-14.22-14.44,2.95-21.4-5.93-36.19-19.4-51.78-44.59-51.61-87.69-104.51-131.36-156.91-1.79-2.15-3.19-5.31-5.49-6.25-15.63-6.42-11.37-19.88-10.45-31.14C11.96,97.33,89.63,15.75,186.33,2.11c106.76-15.06,204.49,46.18,237.38,148.72,1.28,3.98,2.9,7.84,4.37,11.76v58.84Zm-168.34-12.4c-.37-50.52-3.04-99.28-14.2-147.13-3.38-14.51-8-29.06-14.43-42.45-7.64-15.93-17.72-15.51-26.06,.21-4.22,7.95-8.11,16.55-9.76,25.3-5.93,31.53-12.21,63.1-15.67,94.94-2.42,22.31-.47,45.1-.47,66.88,35.01-21.12,48.59-21.07,80.58,2.24ZM233.84,7.11c-.52,1.07-1.05,2.15-1.57,3.22,29.57,62.16,28.62,129.69,32.41,198.13,25.74-23.08,49.97-22.26,74.31,.76-1.5-33.8-5.34-65.3-15.61-95.69-11-32.56-25.79-63.13-53.23-85.07-10.86-8.68-24.14-14.33-36.31-21.35Zm-29.28,2.48c-2.17,.4-4.51,.61-6.72,1.27-23.2,6.92-40.15,22.28-53.92,41.35-28.72,39.78-40.71,85.36-44.8,133.5-.63,7.38-.96,14.78-1.5,23.38,27.59-22.77,38.25-22.99,74.59-1.98,3.13-67.28,2.71-134.68,32.36-197.52Zm23.03,390.29c2.04-11.72,3.94-22.69,5.88-33.66,7.84-44.38,15.9-88.73,23.3-133.19,.93-5.6,.38-13.27-2.81-17.42-15.61-20.25-45.72-22.61-65.57-6.52-8.14,6.6-11.1,13.92-8.93,24.64,5.41,26.7,9.78,53.61,14.51,80.45,5.03,28.5,9.99,57,15.02,85.7h18.6Zm-28.66,21.39c2.35-9.6,6.23-16.53,5.22-22.66-9.18-55.82-19.11-111.52-29.04-167.22-2.77-15.56-13.48-25.09-27.27-30.4-14.08-5.42-27.34-2.2-39,7.8-7.06,6.05-8.79,11.75-4.19,20.78,17.1,33.62,33.32,67.68,49.92,101.55,14.28,29.12,28.63,58.2,44.36,90.15Zm39.79-2.07c31.89-65.14,63.48-129.36,94.49-193.85,1.62-3.36-.21-10.38-2.94-13.48-10.56-12.02-24.47-16.59-39.79-11.44-15.26,5.14-26.34,15.32-29.34,32.19-7.7,43.32-16.14,86.53-22.62,130.04-2.71,18.18-12.81,36.91,.19,56.55Zm156.38-215.09c10.88-70.11-72.81-187.9-133.18-188.62,61.8,48.01,76,117.27,81.81,190.33,24.24-19.27,27.12-19.35,51.37-1.71Zm-302.28,2.22c5.9-74.03,20-143.32,82.84-191.52C107.88,24.26,22.98,144.9,42.19,204.3c19.92-17.81,28.42-17.56,50.62,2.04Zm105.78,228.54c.53-.2,1.06-.4,1.59-.61-.63-1.56-1.15-3.16-1.89-4.67-19.84-40.5-39.06-81.33-59.77-121.38-16.74-32.36-28.59-67.29-51.59-96.46-12.91-16.37-28.56-17.49-40.11-.92-3.41,4.89-3.98,8.89,.08,14.05,7.79,9.87,14.83,20.34,22.2,30.55,43.16,59.81,86.33,119.62,129.5,179.43Zm37.68-.95c.43,.41,.85,.82,1.28,1.23,1.05-1.33,2.15-2.62,3.14-4,49.11-68.09,98.06-136.29,147.53-204.13,5.59-7.67,4.72-12.7-.82-19.06-11.08-12.73-25.49-12.9-35.24,1.12-9.84,14.14-19.4,28.7-27.09,44.07-30.03,60.04-59.27,120.48-88.8,180.77ZM305.57,27.54c60.42,41.89,89.24,101.36,95.72,174.05,10.79-13.13,12.62-13.1,24.04-.1-8.73-80.2-48.3-138.17-119.77-173.95ZM35.41,200.32c3.28-34.61,11.28-67.2,27.77-97.4,16.73-30.64,39.45-55.61,70.69-75.96C69.05,50.02,12.85,131.54,12.22,200.79c9.53-12,10.72-12.07,23.19-.47Zm127.4,195.72c.6-.43,1.21-.86,1.81-1.29-47.17-64.99-94.34-129.98-141.6-195.09-9.69,12.59-9.71,17.34-.45,28.41,10.53,12.59,21.07,25.16,31.59,37.76,36.22,43.4,72.44,86.8,108.65,130.21Zm251.14-195.94c-48.05,63.77-93.96,128.34-139.45,193.26,2.58-1.48,4.45-3.52,6.22-5.64,44.6-53.42,89.19-106.84,133.76-160.29,8.75-10.5,8.61-14.97-.53-27.34Z"/>
</svg>