<?xml version="1.0" encoding="UTF-8"?><svg id="_レイヤー_2" xmlns="http://www.w3.org/2000/svg" viewBox="0 0 128 128"><defs><style>.cls-1{fill:#333;}.cls-2{fill:#b1b1b1;}</style></defs><g id="_レイヤー_1-2"><g><rect class="cls-2" width="128" height="128"/><g><path class="cls-1" d="m47.48,35.91c-.43-1.8-1.41-2.72-2.96-2.72-1.76,0-2.76.84-2.76,2.16,0,1.46.64,2.12,3.04,2.79l.88.26c3.79,1.03,4.86,2.46,4.86,4.9,0,2.91-2.01,4.93-6,4.93-3.23,0-5.48-1.41-6.28-4.3l2.76-.88c.43,1.93,1.69,3,3.45,3,2.19,0,3.17-.94,3.17-2.38s-.51-2.1-3.23-2.87l-.86-.26c-3.54-1.05-4.67-2.44-4.67-4.99s1.97-4.54,5.55-4.54c2.91,0,4.97,1.37,5.85,4.13l-2.81.77Z"/><path class="cls-1" d="m61.9,40.53l4.13,7.37h-2.96l-2.91-5.55-1.61,1.78v3.77h-2.66v-16.93h2.66v10.3l4.24-5.14h3.02l-3.92,4.39Z"/><path class="cls-1" d="m73.47,34.04h-2.91v-2.76h2.91v2.76Zm-.11,13.86h-2.7v-11.76h2.7v11.76Z"/><path class="cls-1" d="m82.08,47.9h-2.7v-16.93h2.7v16.93Z"/><path class="cls-1" d="m90.82,47.9h-2.7v-16.93h2.7v16.93Z"/><path class="cls-1" d="m44.64,58.04h-2.91v-2.76h2.91v2.76Zm-.11,13.86h-2.7v-11.76h2.7v11.76Z"/><path class="cls-1" d="m57.33,64.23c-.26-1.63-.99-2.38-2.08-2.38-1.74,0-2.64,1.48-2.64,4.18s.9,4.2,2.64,4.2c1.26,0,1.99-.84,2.25-2.46l2.51.69c-.58,2.44-2.29,3.75-4.82,3.75-3.34,0-5.33-2.29-5.33-6.13s2.06-6.19,5.33-6.19c2.53,0,4.24,1.35,4.76,3.75l-2.61.6Z"/><path class="cls-1" d="m74.89,66.01c0,3.81-2.12,6.19-5.33,6.19s-5.31-2.31-5.31-6.13,2.14-6.19,5.33-6.19,5.31,2.31,5.31,6.13Zm-7.88.02c0,2.72.81,4.22,2.55,4.22s2.57-1.48,2.57-4.22-.81-4.2-2.55-4.2-2.57,1.5-2.57,4.2Z"/><path class="cls-1" d="m82.84,62.2c.94-1.39,2.33-2.31,3.86-2.31,1.95,0,3.36,1.26,3.36,3.54v8.48h-2.76v-7.73c0-1.35-.58-1.97-1.63-1.97-.94,0-2.01.77-2.74,1.99v7.71h-2.7v-11.76h2.61v2.06Z"/></g><g><path class="cls-1" d="m33.72,92.96h1.96v1.33h-5.65v-1.33h2.06v-7.46c-.52.36-1.18.69-1.93.93l-.27-1.44c.91-.26,1.71-.7,2.44-1.23h1.4v9.21Z"/><path class="cls-1" d="m39.02,86.54c.23-1.88,1.51-2.89,3.22-2.89,1.88,0,3.13,1.01,3.13,2.82,0,1.17-.51,2.04-2.11,3.54-1.44,1.29-2.13,2.06-2.55,2.91h4.71v1.37h-6.49v-1.22c.62-1.29,1.5-2.44,2.99-3.88,1.37-1.32,1.67-1.87,1.67-2.73,0-.92-.53-1.45-1.37-1.45s-1.4.64-1.48,1.89l-1.71-.36Z"/><path class="cls-1" d="m55.11,91.57c0,1.74-1.33,2.91-3.38,2.91s-3.39-1.08-3.39-2.85c0-1.21.63-1.92,2.03-2.61-1.3-.67-1.78-1.51-1.78-2.68,0-1.51,1.25-2.7,3.13-2.7s3.16,1.1,3.16,2.65c0,1.12-.6,1.88-1.84,2.39,1.51.71,2.07,1.54,2.07,2.89Zm-3.69-2.03c-.97.54-1.44,1.1-1.44,1.97,0,1.02.67,1.7,1.74,1.7s1.76-.6,1.76-1.59c0-.82-.4-1.29-1.66-1.89l-.4-.19Zm.6-1.36c.92-.48,1.23-1.01,1.23-1.82,0-.89-.66-1.45-1.54-1.45s-1.51.54-1.51,1.43c0,.71.34,1.17,1.43,1.67l.38.18Z"/><path class="cls-1" d="m60.48,85.94l.55-.56,3.13,3.13,3.1-3.11.56.55-3.11,3.11,3.13,3.11-.56.55-3.13-3.11-3.13,3.13-.55-.55,3.13-3.13-3.11-3.11Z"/><path class="cls-1" d="m77.58,92.96h1.96v1.33h-5.65v-1.33h2.06v-7.46c-.52.36-1.18.69-1.93.93l-.27-1.44c.91-.26,1.71-.7,2.44-1.23h1.4v9.21Z"/><path class="cls-1" d="m82.88,86.54c.23-1.88,1.51-2.89,3.22-2.89,1.88,0,3.13,1.01,3.13,2.82,0,1.17-.51,2.04-2.11,3.54-1.44,1.29-2.13,2.06-2.55,2.91h4.71v1.37h-6.49v-1.22c.62-1.29,1.5-2.44,2.99-3.88,1.37-1.32,1.67-1.87,1.67-2.73,0-.92-.53-1.45-1.37-1.45s-1.4.64-1.48,1.89l-1.71-.36Z"/><path class="cls-1" d="m98.97,91.57c0,1.74-1.33,2.91-3.38,2.91s-3.39-1.08-3.39-2.85c0-1.21.63-1.92,2.03-2.61-1.3-.67-1.78-1.51-1.78-2.68,0-1.51,1.25-2.7,3.13-2.7s3.16,1.1,3.16,2.65c0,1.12-.6,1.88-1.84,2.39,1.51.71,2.07,1.54,2.07,2.89Zm-3.69-2.03c-.97.54-1.44,1.1-1.44,1.97,0,1.02.67,1.7,1.74,1.7s1.76-.6,1.76-1.59c0-.82-.4-1.29-1.66-1.89l-.4-.19Zm.6-1.36c.92-.48,1.23-1.01,1.23-1.82,0-.89-.66-1.45-1.54-1.45s-1.51.54-1.51,1.43c0,.71.34,1.17,1.43,1.67l.38.18Z"/><path class="cls-1" d="m15.27,98c-1.8,2.04-2.43,4.01-2.43,6.41s.63,4.36,2.43,6.41l-.41.38c-2.28-2.02-3.26-4.13-3.26-6.79s1-4.76,3.26-6.79l.41.38Z"/><path class="cls-1" d="m26.29,109.65h-2l-.75-3.37c-.18-.85-.34-1.74-.53-2.73h-.17c-.18.97-.36,1.89-.55,2.74l-.8,3.36h-2l-2.02-7.53h1.77l.71,3.31c.21.95.38,1.93.56,2.77h.15c.19-.85.37-1.87.58-2.74l.74-3.33h2.03l.71,3.33c.21.93.4,1.88.53,2.74h.17c.19-.91.34-1.8.56-2.76l.73-3.32h1.65l-2.07,7.53Z"/><path class="cls-1" d="m30.96,101.27c.4-1.48,1.58-2.26,3.17-2.26,1.91,0,3.14,1.11,3.14,2.63,0,1.23-.74,2.14-2,2.36v.1c1.41.3,2.21,1.25,2.21,2.63,0,1.85-1.34,3.12-3.35,3.12-1.73,0-2.87-.7-3.33-2.32l1.69-.49c.23,1.06.73,1.48,1.63,1.48.99,0,1.6-.66,1.6-1.77,0-1.19-.56-1.89-2.03-1.89h-.79v-1.4h.73c1.37,0,1.92-.59,1.92-1.65,0-.96-.56-1.47-1.44-1.47-.73,0-1.32.45-1.45,1.44l-1.69-.51Z"/><path class="cls-1" d="m47.1,106.93c0,1.74-1.33,2.91-3.38,2.91s-3.39-1.08-3.39-2.85c0-1.21.63-1.92,2.03-2.61-1.3-.67-1.78-1.51-1.78-2.67,0-1.51,1.25-2.7,3.13-2.7s3.16,1.1,3.16,2.65c0,1.12-.6,1.88-1.84,2.39,1.51.71,2.07,1.54,2.07,2.89Zm-3.69-2.03c-.97.54-1.44,1.1-1.44,1.98,0,1.01.67,1.7,1.74,1.7s1.76-.6,1.76-1.59c0-.82-.4-1.29-1.66-1.89l-.4-.19Zm.6-1.36c.92-.48,1.23-1.02,1.23-1.82,0-.89-.66-1.46-1.54-1.46s-1.51.54-1.51,1.43c0,.71.34,1.17,1.43,1.67l.38.18Z"/><path class="cls-1" d="m55.34,105.99h1.3v1.29h-1.3v2.37h-1.58v-2.37h-3.99v-1.21l3.4-6.96h2.17v6.87Zm-1.58-2.3c0-1.11.04-2.15.08-3.21h-.19c-.34.9-.74,1.82-1.17,2.74l-1.29,2.77h2.57v-2.3Z"/><path class="cls-1" d="m61.98,101.29l.55-.56,3.13,3.13,3.1-3.11.56.55-3.11,3.11,3.13,3.12-.56.55-3.13-3.12-3.13,3.13-.55-.55,3.13-3.13-3.11-3.11Z"/><path class="cls-1" d="m76.99,103.39c.6-.85,1.47-1.43,2.42-1.43,1.25,0,2.15.81,2.15,2.25v5.43h-1.77v-4.94c0-.88-.37-1.26-1.04-1.26-.6,0-1.29.51-1.76,1.29v4.91h-1.73v-10.84h1.73v4.58Z"/><path class="cls-1" d="m84.94,101.27c.4-1.48,1.58-2.26,3.17-2.26,1.91,0,3.14,1.11,3.14,2.63,0,1.23-.74,2.14-2,2.36v.1c1.41.3,2.21,1.25,2.21,2.63,0,1.85-1.34,3.12-3.35,3.12-1.73,0-2.87-.7-3.33-2.32l1.69-.49c.23,1.06.73,1.48,1.63,1.48.99,0,1.6-.66,1.6-1.77,0-1.19-.56-1.89-2.03-1.89h-.79v-1.4h.73c1.37,0,1.92-.59,1.92-1.65,0-.96-.56-1.47-1.44-1.47-.73,0-1.32.45-1.45,1.44l-1.69-.51Z"/><path class="cls-1" d="m101.08,106.93c0,1.74-1.33,2.91-3.37,2.91s-3.39-1.08-3.39-2.85c0-1.21.63-1.92,2.03-2.61-1.3-.67-1.78-1.51-1.78-2.67,0-1.51,1.25-2.7,3.13-2.7s3.15,1.1,3.15,2.65c0,1.12-.6,1.88-1.84,2.39,1.51.71,2.07,1.54,2.07,2.89Zm-3.69-2.03c-.97.54-1.44,1.1-1.44,1.98,0,1.01.67,1.7,1.74,1.7s1.76-.6,1.76-1.59c0-.82-.4-1.29-1.66-1.89l-.4-.19Zm.6-1.36c.92-.48,1.23-1.02,1.23-1.82,0-.89-.66-1.46-1.54-1.46s-1.51.54-1.51,1.43c0,.71.34,1.17,1.43,1.67l.38.18Z"/><path class="cls-1" d="m109.32,105.99h1.3v1.29h-1.3v2.37h-1.58v-2.37h-3.99v-1.21l3.4-6.96h2.17v6.87Zm-1.58-2.3c0-1.11.04-2.15.08-3.21h-.19c-.34.9-.74,1.82-1.17,2.74l-1.29,2.77h2.57v-2.3Z"/><path class="cls-1" d="m113.47,97.62c2.25,2.03,3.25,4.16,3.25,6.79s-.99,4.78-3.25,6.79l-.42-.38c1.8-2.04,2.43-3.99,2.43-6.41s-.62-4.36-2.43-6.41l.42-.38Z"/></g></g></g></svg>